<svg aria-hidden="true" style="position: absolute; width: 0; height: 0; overflow: hidden;" version="1.1" xmlns="http://www.w3.org/2000/svg" xmlns:xlink="http://www.w3.org/1999/xlink">
<defs>
<symbol id="icon-day-and-night-icon" viewBox="0 0 32 32">
<path d="M25.245 25.245l0.316-0.316-18.49-18.49-0.316 0.316c-2.553 2.553-3.829 5.899-3.829 9.245s1.276 6.692 3.829 9.245c2.553 2.553 5.899 3.829 9.245 3.829s6.692-1.276 9.245-3.829zM20.306 6.467v0.836c0 0.662 0.994 0.643 0.994 0v-0.836c0-0.662-0.994-0.641-0.994 0zM22.714 9.242c-0.526-0.526-1.233-0.819-1.977-0.819-0.773 0-1.472 0.314-1.978 0.819s-0.819 1.206-0.819 1.978 0.314 1.471 0.819 1.978c0.506 0.507 1.206 0.819 1.978 0.819s1.471-0.313 1.977-0.819c0.507-0.506 0.819-1.205 0.819-1.977s-0.313-1.472-0.819-1.978zM17.071 8.162l0.591 0.591c0.456 0.456 1.156-0.223 0.713-0.691l-0.601-0.603c-0.461-0.461-1.166 0.24-0.703 0.702zM15.982 11.65h0.836c0.651 0 0.652-0.994 0-0.994h-0.836c-0.651 0-0.651 0.994 0 0.994zM17.678 14.885l0.591-0.591c0.462-0.462-0.24-1.165-0.703-0.703l-0.591 0.591c-0.462 0.461 0.239 1.166 0.703 0.703zM21.165 15.974v-0.836c0-0.651-0.994-0.651-0.994 0v0.836c0 0.651 0.994 0.651 0.994 0zM24.411 14.289l-0.601-0.602c-0.456-0.456-1.156 0.223-0.713 0.692l0.602 0.602c0.456 0.456 1.155-0.223 0.712-0.691zM25.489 10.791h-0.836c-0.663 0-0.642 0.994 0 0.994h0.836c0.663 0 0.641-0.994 0-0.994zM23.794 7.556l-0.591 0.591c-0.462 0.463 0.24 1.166 0.703 0.703l0.591-0.591c0.462-0.463-0.24-1.166-0.703-0.703zM4.686 4.687c3.124-3.124 7.219-4.687 11.314-4.687s8.189 1.563 11.313 4.686c3.124 3.124 4.687 7.219 4.687 11.314s-1.563 8.189-4.686 11.313c-3.124 3.124-7.219 4.687-11.314 4.687s-8.189-1.563-11.313-4.686c-3.124-3.124-4.687-7.219-4.687-11.314s1.563-8.189 4.686-11.313zM5.635 5.634c-2.862 2.862-4.294 6.614-4.294 10.366s1.431 7.503 4.293 10.365c2.862 2.863 6.614 4.294 10.366 4.294s7.503-1.431 10.365-4.293c2.863-2.863 4.294-6.614 4.294-10.366s-1.431-7.503-4.293-10.365c-2.863-2.862-6.614-4.294-10.366-4.294s-7.503 1.431-10.365 4.293zM12.296 15.954c-1.016 0.496-1.747 1.506-1.832 2.715-0.127 1.804 1.233 3.37 3.037 3.497 0.857 0.060 1.659-0.215 2.28-0.714 0.308-0.247 0.625-0.029 0.491 0.282-0.734 1.71-2.489 2.851-4.45 2.713-2.479-0.174-4.347-2.324-4.173-4.803 0.167-2.375 2.157-4.196 4.513-4.174 0.434 0.004 0.526 0.291 0.133 0.484zM12.421 18.818c0.053-0.224 0.016-0.441-0.114-0.648-0.127-0.207-0.304-0.337-0.529-0.391l0.006-0.027c0.225 0.053 0.441 0.015 0.648-0.113s0.338-0.305 0.391-0.529l0.027 0.007c-0.053 0.224-0.015 0.439 0.113 0.648 0.128 0.207 0.305 0.337 0.529 0.391l-0.006 0.027c-0.225-0.053-0.441-0.015-0.648 0.113s-0.338 0.305-0.391 0.529l-0.027-0.007zM14.906 20.269c0.067-0.282 0.019-0.553-0.142-0.814s-0.383-0.424-0.664-0.491l0.008-0.034c0.283 0.067 0.553 0.019 0.814-0.141s0.424-0.383 0.491-0.665l0.034 0.008c-0.066 0.281-0.019 0.552 0.142 0.813s0.383 0.425 0.664 0.491l-0.008 0.034c-0.282-0.066-0.553-0.019-0.814 0.142s-0.424 0.383-0.491 0.664l-0.034-0.008z"></path>
</symbol>
</defs>
</svg>
